<svg width="24" height="24" viewBox="0 0 24 24" fill="none" xmlns="http://www.w3.org/2000/svg">
<path d="M21.9589 10.434C21.9114 10.3065 21.826 10.1966 21.7142 10.119C21.6025 10.0414 21.4696 9.99988 21.3335 10H13.2835L17.9269 0.972C17.9793 0.870322 18.0046 0.756876 18.0005 0.64257C17.9963 0.528265 17.9629 0.416946 17.9033 0.319318C17.8437 0.221689 17.76 0.141036 17.6602 0.0851136C17.5604 0.0291911 17.4479 -0.000119514 17.3335 3.66261e-07C17.1737 6.66957e-05 17.0192 0.0575589 16.8982 0.162L12.0002 4.392L2.23155 12.8287C2.1286 12.9175 2.05529 13.0357 2.02145 13.1675C1.98762 13.2992 1.99487 13.4381 2.04225 13.5656C2.08963 13.6931 2.17486 13.803 2.28651 13.8806C2.39816 13.9583 2.53088 13.9999 2.66688 14H10.7169L6.07354 23.028C6.02116 23.1297 5.99581 23.2431 5.99995 23.3574C6.00408 23.4717 6.03756 23.5831 6.09715 23.6807C6.15675 23.7783 6.24046 23.859 6.34023 23.9149C6.44001 23.9708 6.5525 24.0001 6.66688 24C6.82672 23.9999 6.98121 23.9424 7.10221 23.838L12.0002 19.608L21.7689 11.1713C21.872 11.0825 21.9455 10.9643 21.9795 10.8325C22.0135 10.7006 22.0063 10.5616 21.9589 10.434Z" fill="#FFAC33"/>
</svg>
