<svg width="512" height="512" viewBox="0 0 512 512" fill="none" xmlns="http://www.w3.org/2000/svg">
<g clip-path="url(#clip0_479_5099)">
<path d="M468.451 222.592C467.438 219.872 465.617 217.527 463.232 215.872C460.848 214.217 458.014 213.331 455.111 213.333H283.378L382.435 20.736C383.553 18.5669 384.094 16.1467 384.005 13.7082C383.917 11.2697 383.203 8.89484 381.932 6.81211C380.66 4.72937 378.875 3.00877 376.746 1.81576C374.617 0.622743 372.218 -0.00254964 369.778 7.81357e-06C366.368 0.00142284 363.072 1.22792 360.49 3.45601L256 93.696L47.6016 273.678C45.4053 275.574 43.8414 278.096 43.1196 280.906C42.3978 283.716 42.5526 286.68 43.5633 289.399C44.574 292.119 46.3923 294.464 48.7741 296.12C51.156 297.777 53.9874 298.665 56.8887 298.667H228.622L129.564 491.264C128.447 493.433 127.906 495.853 127.994 498.292C128.082 500.73 128.796 503.105 130.068 505.188C131.339 507.271 133.125 508.991 135.254 510.184C137.382 511.377 139.782 512.003 142.222 512C145.632 511.999 148.928 510.772 151.509 508.544L256 418.304L464.398 238.322C466.599 236.427 468.167 233.904 468.891 231.092C469.616 228.281 469.462 225.314 468.451 222.592Z" fill="#FFAC33"/>
</g>
<defs>
<clipPath id="clip0_479_5099">
<rect width="512" height="512" rx="40" fill="white"/>
</clipPath>
</defs>
</svg>
