<svg width="95" height="17" viewBox="0 0 95 17" fill="none" xmlns="http://www.w3.org/2000/svg">
<g clip-path="url(#clip0_1_7)">
<path fill-rule="evenodd" clip-rule="evenodd" d="M24.2748 14.2184C22.6895 14.2184 21.4213 13.4371 21.7384 12.0133L22.4077 8.94014C22.7599 7.36014 24.1691 6.7351 25.9129 6.7351C27.7976 6.7351 29.3301 7.37749 28.9954 8.94014L28.326 12.0133C27.9209 13.8537 26.2123 14.2184 24.2748 14.2184ZM8.15784 16.8401C5.39238 16.8401 3.71904 14.7739 4.31792 12.0133L5.14579 8.17621C5.7799 5.27664 8.24588 4.11335 10.9056 4.11335H17.7047L17.1058 6.874H12.4028C10.7471 6.874 9.24987 7.56849 8.95045 8.94014L8.2811 12.0133C7.98168 13.4197 9.23226 14.0794 10.8352 14.0794H15.8023L15.2035 16.8401H8.12255H8.15784ZM90.7152 6.85664L89.6058 11.9959C89.3065 13.3849 89.9051 14.0621 91.2087 14.0621H92.829L92.2305 16.8227H89.5703C86.2413 16.8227 85.1493 15.1212 85.8189 11.9959L86.9109 6.85664H85.3609L85.942 4.09599H87.5094L88.3906 0.0157928H92.195L91.3145 4.09599H94.9783L94.379 6.85664H90.6978H90.7152ZM79.0899 9.11378H74.3522L74.5631 8.15885C74.8449 6.89136 76.2189 6.64829 77.6457 6.64829C78.879 6.64829 80.2877 6.94345 80.0239 8.15885L79.9 8.69706C79.8297 9.02692 79.4602 9.11378 79.0899 9.11378ZM74.2638 16.8227C70.8819 16.8227 69.1028 14.9476 69.737 11.9959L70.5649 8.15885C71.2694 4.89466 73.8942 3.93973 77.9631 3.93973C81.5913 3.93973 84.6384 4.96411 83.9515 8.15885L83.4587 10.4681C83.2471 11.4403 82.1725 11.7181 81.0978 11.7181H73.8058L73.5594 12.7773C73.3478 13.6975 73.8942 14.0794 75.3384 14.0794H82.6834L82.0848 16.8401H74.2812L74.2638 16.8227ZM44.4741 16.8227H40.6912L42.8578 6.83927H39.0883L36.9218 16.8227H33.1171L35.8826 4.07863H49.6568C52.8626 4.07863 54.395 5.95379 53.7433 8.90542L52.0347 16.8053H48.2301L49.8506 9.33949C50.1852 7.77685 49.5687 6.82191 47.7192 6.82191H46.6448L44.4783 16.8053L44.4741 16.8227ZM57.865 16.8227H54.0604L56.8258 4.07863H64.4527C67.6585 4.07863 69.191 5.95379 68.5392 8.90542L66.8307 16.8053H63.026L64.6465 9.33949C64.9812 7.77685 64.3647 6.82191 62.5152 6.82191H60.0139L57.8474 16.8053L57.865 16.8227ZM17.7399 11.9959L18.4093 8.92278C19.2547 5.01621 22.0906 3.93973 26.4941 3.93973C30.6335 3.93973 33.6807 5.57181 32.9586 8.92278L32.2892 11.9959C31.3381 16.3713 27.8857 16.9616 23.6583 16.9616C19.8008 16.9616 16.9649 15.5032 17.7399 11.9959Z" fill="black"/>
<path fill-rule="evenodd" clip-rule="evenodd" d="M5.93985 16.8922C3.26249 16.8228 1.65961 14.7914 2.24088 12.0654L3.06875 8.22835C3.6324 5.62395 5.67564 4.42594 8.00071 4.20023C7.52513 4.37385 7.08478 4.59957 6.67965 4.89473C5.65802 5.60659 4.90061 6.6657 4.58356 8.1415L3.7557 11.9786C3.66762 12.3954 3.61478 12.7947 3.61478 13.1593C3.61478 14.1837 3.93183 15.1039 4.49549 15.7984C4.86538 16.2672 5.34096 16.6318 5.90462 16.8922H5.93985Z" fill="#FF8133"/>
<path fill-rule="evenodd" clip-rule="evenodd" d="M3.82188 16.8922C1.14452 16.8228 -0.458372 14.7914 0.122896 12.0654L0.950768 8.22835C1.51442 5.62395 3.55766 4.42594 5.88273 4.20023C5.40715 4.37385 4.9668 4.59957 4.56167 4.89473C3.54005 5.60659 2.78264 6.6657 2.46559 8.1415L1.63772 11.9786C1.54964 12.3954 1.4968 12.7947 1.4968 13.1593C1.4968 14.1837 1.81385 15.1039 2.37751 15.7984C2.74741 16.2672 3.22299 16.6318 3.78664 16.8922H3.82188Z" fill="#EF233C"/>
</g>
<defs>
<clipPath id="clip0_1_7">
<rect width="95" height="17" fill="white"/>
</clipPath>
</defs>
</svg>
