<svg width="160" height="30" viewBox="0 0 160 30" fill="none" xmlns="http://www.w3.org/2000/svg">
<path d="M85.7855 29.6H83.7905V13.2C83.7905 10.549 85.9342 8.4 88.5786 8.4H95.7606C98.405 8.4 100.549 10.549 100.549 13.2V29.6H98.5536V13.6C98.5536 11.8327 97.1245 10.4 95.3616 10.4H88.9776C87.2147 10.4 85.7855 11.8327 85.7855 13.6V29.6Z" fill="#004680"/>
<path d="M114.115 29.6H112.12V13.6C112.12 11.8327 110.691 10.4 108.928 10.4H104.539V8.4H109.327C111.971 8.4 114.115 10.549 114.115 13.2V29.6Z" fill="#004680"/>
<path d="M79.8005 29.6H75.8105V13.2C75.8105 5.90984 81.7056 0 88.9776 0H109.327C116.599 0 122.494 5.90984 122.494 13.2V29.6H118.504V12.8C118.504 7.93989 114.574 4 109.726 4H88.5786C83.7306 4 79.8005 7.93989 79.8005 12.8V29.6Z" fill="#004680"/>
<path d="M44.2893 0H42.2943V16C42.2943 19.0928 44.7952 21.6 47.8803 21.6H54.6633C57.7484 21.6 60.2494 19.0928 60.2494 16V0H58.2544V15.6C58.2544 17.8091 56.468 19.6 54.2643 19.6H48.2793C46.0757 19.6 44.2893 17.8091 44.2893 15.6V0Z" fill="#004680"/>
<path d="M38.3042 0H34.3142V16.4C34.3142 23.9111 40.388 30 47.8803 30H55.0623C62.5547 30 68.6284 23.9111 68.6284 16.4V0H64.6384V16.4C64.6384 21.7019 60.3511 26 55.0623 26H47.8803C42.5916 26 38.3042 21.7019 38.3042 16.4V0Z" fill="#004680"/>
<path d="M10.3741 0H8.37905V16C8.37905 19.0928 10.88 21.6 13.9651 21.6H26.3342V19.6H13.9651C11.9818 19.6 10.3741 17.9882 10.3741 16V0Z" fill="#004680"/>
<path d="M130.075 20.8V8.8C130.075 3.93989 134.005 0 138.853 0H160V4H138.853C136.209 4 134.065 6.14903 134.065 8.8V20.8C134.065 23.451 136.209 25.6 138.853 25.6H160V29.6H138.853C134.005 29.6 130.075 25.6601 130.075 20.8Z" fill="#004680"/>
<path d="M139.252 20V18H160V20H139.252Z" fill="#004680"/>
<path d="M139.252 12V10H160V12H139.252Z" fill="#004680"/>
<path d="M0 0H3.99002V16.4C3.99002 21.7019 8.27737 26 13.5661 26H26.7332V30H13.1671C5.8951 30 0 24.0902 0 16.8V0Z" fill="#004680"/>
</svg>
