<svg width="389" height="75" viewBox="0 0 389 75" fill="none" xmlns="http://www.w3.org/2000/svg">
<path d="M63.8299 7.3457H0V22.1379H23.4009V67.6276H40.429V22.1379H63.8299V7.3457Z" fill="#292929"/>
<path d="M191.843 49.0751C190.256 50.9056 188.191 52.2661 185.672 53.1813C183.128 54.0966 180.206 54.5418 176.881 54.5418C173.052 54.5418 169.752 53.8492 166.981 52.4887C164.21 51.1282 162.069 49.1741 160.608 46.6263C159.147 44.0785 158.392 41.0359 158.392 37.4987C158.392 33.9614 159.122 30.9189 160.608 28.371C162.069 25.8232 164.21 23.8691 166.981 22.5086C169.752 21.1481 173.077 20.4555 176.881 20.4555C180.206 20.4555 183.153 20.9255 185.672 21.8902C188.191 22.8549 190.256 24.2401 191.843 26.0211C193.43 27.8268 194.488 30.0036 195.042 32.5762H212.07C211.466 27.2827 209.627 22.6323 206.503 18.625C203.405 14.6425 199.324 11.5505 194.261 9.34898C189.223 7.14747 183.405 6.05908 176.881 6.05908C169.727 6.05908 163.48 7.3701 158.14 9.99212C152.8 12.6141 148.643 16.2998 145.671 20.9997C142.699 25.7243 141.212 31.2157 141.212 37.4739C141.212 43.7322 142.699 49.2236 145.671 53.9482C148.643 58.6728 152.8 62.3337 158.14 64.9557C163.48 67.5777 169.727 68.8888 176.881 68.8888C183.43 68.8888 189.223 67.8004 194.261 65.5989C199.299 63.3973 203.38 60.3053 206.503 56.3228C209.602 52.3403 211.466 47.6899 212.07 42.3717H195.042C194.488 44.9937 193.43 47.2199 191.843 49.0504V49.0751Z" fill="#292929"/>
<path d="M285.951 21.0241C282.903 16.2995 278.646 12.6386 273.18 10.0165C267.713 7.39451 261.341 6.0835 254.036 6.0835C246.731 6.0835 240.408 7.39451 234.917 10.0165C229.426 12.6386 225.169 16.3242 222.146 21.0241C219.123 25.7487 217.612 31.2401 217.612 37.4983C217.612 43.7566 219.123 49.248 222.146 53.9726C225.169 58.6972 229.426 62.3581 234.917 64.9801C240.408 67.6022 246.781 68.9132 254.036 68.9132C261.29 68.9132 267.739 67.6022 273.18 64.9801C278.646 62.3581 282.903 58.6972 285.951 53.9726C288.999 49.248 290.535 43.7566 290.535 37.4983C290.535 31.2401 288.999 25.7487 285.951 21.0241ZM271.013 46.3291C269.452 48.8027 267.235 50.7074 264.338 52.0432C261.441 53.3789 258.016 54.0468 254.036 54.0468C250.056 54.0468 246.706 53.3789 243.809 52.0432C240.912 50.7074 238.67 48.8027 237.108 46.3291C235.521 43.8555 234.741 40.9119 234.741 37.4983C234.741 34.0848 235.521 31.1164 237.108 28.6676C238.695 26.1939 240.937 24.2893 243.809 22.9535C246.706 21.6178 250.106 20.9499 254.036 20.9499C257.965 20.9499 261.467 21.6178 264.338 22.9535C267.235 24.2893 269.452 26.1939 271.013 28.6676C272.575 31.1412 273.356 34.0848 273.356 37.4983C273.356 40.9119 272.575 43.8802 271.013 46.3291Z" fill="#292929"/>
<path d="M362.803 7.34521L344.213 51.3755L325.473 7.34521H299.301V67.6271H315.422V22.1869L335.548 67.6271H352.727L372.879 21.89V67.6271H389V7.34521H362.803Z" fill="#292929"/>
<path d="M134.613 37.4999C134.613 39.5778 134.16 41.6061 133.354 43.4613C133.354 43.4613 133.354 43.4861 133.354 43.5108L126.829 40.6909L73.2769 17.6121V0L125.948 24.0682C128.618 25.2803 130.784 27.2097 132.296 29.5349C133.807 31.8601 134.663 34.6058 134.663 37.4999H134.613Z" fill="#FF0054"/>
<path d="M133.328 43.486C133.051 44.1044 132.723 44.7228 132.346 45.2918C130.834 47.6912 128.618 49.67 125.897 50.9316L73.2261 74.9998V57.1651L112.471 40.0972L118.844 37.3267L73.2261 17.6121L126.779 40.6908L133.303 43.5108L133.328 43.486Z" fill="#B10036"/>
<path opacity="0.45" d="M133.353 43.4366C133.353 43.4366 133.353 43.4613 133.353 43.486C133.076 44.1044 132.749 44.7228 132.371 45.2918L112.497 40.0724L118.869 37.302L126.829 40.6661L133.379 43.4366H133.353Z" fill="#191919"/>
</svg>
